<?xml version="1.0" encoding="iso-8859-1"?>
<!-- Generator: Adobe Illustrator 19.0.0, SVG Export Plug-In . SVG Version: 6.00 Build 0)  -->
<svg version="1.1" id="Layer_1" xmlns="http://www.w3.org/2000/svg" xmlns:xlink="http://www.w3.org/1999/xlink" x="0px" y="0px"
	 viewBox="0 0 512.003 512.003" style="enable-background:new 0 0 512.003 512.003;" xml:space="preserve">
<g>
	<g>
		<path d="M265.025,418.519c-1.09-2.623-2.647-4.97-4.631-6.954l-63.979-63.979c-8.341-8.341-21.824-8.341-30.165,0
			c-8.341,8.32-8.341,21.824,0,30.165l27.584,27.584h-33.835c-35.285,0-64-28.715-64-64V128.002
			c23.531,0,42.667-19.136,42.667-42.667V42.669c0-23.531-19.136-42.667-42.667-42.667H53.333
			c-23.531,0-42.667,19.136-42.667,42.667v42.667c0,23.531,19.136,42.667,42.667,42.667v213.333
			c0,58.816,47.851,106.667,106.667,106.667h33.835l-27.584,27.584c-8.341,8.32-8.341,21.824,0,30.165
			c4.16,4.16,9.621,6.251,15.083,6.251c5.461,0,10.923-2.091,15.083-6.251l63.979-63.979c1.984-1.984,3.541-4.331,4.629-6.955
			C267.18,429.613,267.18,423.725,265.025,418.519z"/>
	</g>
</g>
<g>
	<g>
		<path d="M437.333,0h-42.667c-23.531,0-42.667,19.136-42.667,42.667v42.667c0,23.53,19.136,42.666,42.667,42.666h42.667
			C460.864,128,480,108.864,480,85.333V42.667C479.999,19.136,460.863,0,437.333,0z"/>
	</g>
</g>
<g>
	<g>
		<path d="M495.082,240.917l-63.979-63.979c-1.963-1.984-4.331-3.541-6.955-4.629c-5.205-2.155-11.093-2.155-16.299,0
			c-2.624,1.088-4.992,2.645-6.955,4.629l-63.979,63.979c-8.341,8.341-8.341,21.824,0,30.165c4.16,4.16,9.621,6.251,15.083,6.251
			c5.461,0,10.923-2.091,15.083-6.251l27.584-27.584V384c-23.531,0-42.667,19.136-42.667,42.667v42.667
			c0,23.531,19.136,42.667,42.667,42.667h42.667c23.531,0,42.667-19.136,42.667-42.667v-42.667
			c0-23.531-19.136-42.667-42.667-42.667V243.499l27.584,27.584c4.16,4.16,9.621,6.251,15.083,6.251
			c5.462,0,10.923-2.091,15.083-6.251C503.423,262.741,503.423,249.259,495.082,240.917z"/>
	</g>
</g>
<g>
</g>
<g>
</g>
<g>
</g>
<g>
</g>
<g>
</g>
<g>
</g>
<g>
</g>
<g>
</g>
<g>
</g>
<g>
</g>
<g>
</g>
<g>
</g>
<g>
</g>
<g>
</g>
<g>
</g>
</svg>
